<svg xmlns="http://www.w3.org/2000/svg" version="1.1" x="0" y="0" width="600" height="600" viewBox="0 0 600 600" enable-background="new 0 0 600 600" xml:space="preserve"><circle cx="300" cy="300" r="300"/><path fill="#FFFFFF" d="M398.2 327.4c4.3-60.2-64.5-124.5-95-103 -25.4 17.9-14.8 52.7-15.2 74.8 -0.4 25.6-19.3 48.7-43.9 52.6 -10.3 1.6-62.2 1.9-80.3 35.4 -9.2 17-6.3 31.6 2.8 45.5 30.2 46.1 64.5 19.9 78.4 6.8 13-12.3 27.1-22.6 43.8-29C330.6 394.3 395.3 368.3 398.2 327.4zM388.7 143.9c10 7.2 8.6 26.2-3.1 42.4 -11.7 16.2-29.3 23.5-39.3 16.2 -10-7.2-8.6-26.2 3.1-42.4C361.1 144 378.7 136.7 388.7 143.9zM412.7 220.7c-9.2 10.3-21.9 14-28.2 8.3 -6.4-5.7-4-18.7 5.2-29 9.2-10.3 21.9-14 28.2-8.3C424.3 197.5 422 210.4 412.7 220.7zM431 253.1c-7.5 8.4-17.8 11.4-22.9 6.7 -5.2-4.6-3.3-15.1 4.2-23.5 7.5-8.4 17.8-11.4 22.9-6.8C440.4 234.2 438.5 244.8 431 253.1zM434.9 280.5c-6.3 5.4-14.1 6.7-17.5 2.8 -3.4-3.9-1-11.4 5.3-16.9 6.3-5.4 14.1-6.7 17.5-2.8C443.6 267.5 441.2 275 434.9 280.5zM432.2 305.4c-5 4.3-11.2 5.4-13.9 2.3 -2.7-3.1-0.8-9.1 4.2-13.5 5-4.3 11.3-5.3 13.9-2.2C439.1 295 437.2 301 432.2 305.4z"/></svg>